<svg id="Layer_1" data-name="Layer 1" xmlns="http://www.w3.org/2000/svg" xmlns:xlink="http://www.w3.org/1999/xlink" viewBox="0 0 156.2 148.44"><defs><style>.cls-1{fill:none;}.cls-2{fill:#fff;}.cls-3{clip-path:url(#clip-path);}.cls-4{fill:#4c5484;fill-rule:evenodd;}</style><clipPath id="clip-path" transform="translate(0 -0.66)"><rect class="cls-1" width="150" height="147"/></clipPath></defs><g id="surface1"><path class="cls-2" d="M83.59,3.86c-1.2,0-2.38,0-3.57.09s-2.37.14-3.56.26-2.35.26-3.53.43-2.35.38-3.51.61-2.33.5-3.48.79-2.3.6-3.44,1-2.26.71-3.38,1.12-2.23.82-3.32,1.28-2.19.93-3.26,1.44-2.14,1.05-3.19,1.6-2.08,1.15-3.1,1.76-2,1.25-3,1.91-2,1.34-2.91,2-1.9,1.44-2.81,2.19-1.82,1.53-2.7,2.33-1.74,1.62-2.58,2.46-1.66,1.7-2.46,2.58-1.58,1.78-2.33,2.7S26,32.27,25.26,33.22s-1.39,1.92-2.05,2.91-1.3,2-1.91,3-1.2,2.06-1.76,3.11-1.09,2.11-1.6,3.18-1,2.16-1.44,3.26-.89,2.2-1.29,3.32-.77,2.25-1.12,3.39-.66,2.28-.95,3.43-.55,2.31-.78,3.48-.43,2.33-.61,3.51-.32,2.36-.43,3.54-.21,2.37-.27,3.55S11,75.29,11,76.48s0,2.37.08,3.56.15,2.37.27,3.55.26,2.37.43,3.54.38,2.35.61,3.51.5,2.33.78,3.48.61,2.3.95,3.43.72,2.27,1.12,3.39.83,2.23,1.29,3.33.93,2.18,1.44,3.25,1,2.14,1.6,3.19,1.15,2.08,1.76,3.1,1.25,2,1.91,3,1.34,2,2.05,2.91,1.44,1.89,2.19,2.81,1.53,1.82,2.33,2.7,1.61,1.74,2.46,2.58,1.7,1.66,2.58,2.46,1.78,1.58,2.7,2.33,1.85,1.48,2.81,2.19,1.92,1.4,2.91,2.06,2,1.29,3,1.9,2,1.2,3.1,1.76,2.11,1.09,3.19,1.6,2.16,1,3.26,1.45,2.2.88,3.32,1.28,2.25.77,3.38,1.12,2.29.66,3.44.95,2.31.54,3.48.78,2.33.43,3.51.61,2.36.32,3.53.43,2.38.21,3.56.27,2.37.08,3.57.08,2.37,0,3.56-.08,2.37-.15,3.55-.27,2.36-.26,3.54-.43,2.35-.38,3.51-.61,2.32-.49,3.48-.78,2.3-.61,3.43-1,2.27-.71,3.39-1.11,2.23-.83,3.33-1.28,2.18-.94,3.25-1.45,2.14-1,3.19-1.6,2.08-1.14,3.1-1.76,2-1.24,3-1.9,2-1.35,2.91-2.06,1.89-1.44,2.81-2.19,1.82-1.53,2.7-2.33,1.74-1.62,2.58-2.46,1.66-1.7,2.46-2.58,1.57-1.78,2.33-2.7,1.48-1.85,2.19-2.81,1.39-1.92,2.05-2.91,1.3-2,1.91-3,1.2-2,1.75-3.1,1.1-2.11,1.61-3.19,1-2.16,1.44-3.25.88-2.21,1.29-3.33.77-2.24,1.11-3.39.66-2.28,1-3.43.55-2.31.78-3.48.44-2.33.61-3.51.32-2.35.44-3.54.2-2.36.26-3.55.09-2.38.09-3.56,0-2.38-.09-3.57-.14-2.37-.26-3.55-.26-2.36-.44-3.54-.37-2.34-.61-3.51-.49-2.33-.78-3.48-.6-2.29-1-3.43S152.36,53.13,152,52s-.83-2.22-1.29-3.32-.93-2.19-1.44-3.26-1-2.14-1.61-3.18-1.14-2.09-1.75-3.11-1.25-2-1.91-3-1.34-2-2.05-2.91-1.44-1.89-2.19-2.81-1.53-1.82-2.33-2.7-1.62-1.74-2.46-2.58-1.7-1.66-2.58-2.46-1.78-1.57-2.7-2.33-1.85-1.48-2.81-2.19-1.92-1.39-2.91-2-2-1.3-3-1.91-2.06-1.19-3.1-1.76-2.11-1.09-3.19-1.6-2.16-1-3.25-1.44-2.21-.89-3.33-1.28S105.8,7.33,104.66,7s-2.28-.67-3.43-1-2.31-.55-3.48-.79-2.34-.43-3.51-.61-2.36-.32-3.54-.43S88.34,4,87.15,4,84.77,3.86,83.59,3.86Z" transform="translate(0 -0.66)"/><g class="cls-3"><path class="cls-4" d="M75,.66a75,75,0,0,0-23.7,146.16c3.75.69,5.12-1.62,5.12-3.61,0-1.78-.06-6.5-.1-12.75C35.45,135,31.05,120.4,31.05,120.4c-3.41-8.66-8.32-11-8.32-11-6.82-4.66.51-4.55.51-4.55,7.52.53,11.49,7.73,11.49,7.73,6.68,11.46,17.55,8.15,21.82,6.23.68-4.85,2.62-8.15,4.76-10-16.65-1.89-34.16-8.32-34.16-37.07a29,29,0,0,1,7.72-20.12c-.77-1.9-3.35-9.53.74-19.85,0,0,6.3-2,20.62,7.69a70.93,70.93,0,0,1,37.55,0c14.32-9.71,20.61-7.69,20.61-7.69,4.09,10.32,1.52,18,.74,19.85a28.9,28.9,0,0,1,7.71,20.12c0,28.81-17.54,35.15-34.25,37,2.7,2.31,5.1,6.89,5.1,13.89,0,10-.1,18.11-.1,20.57,0,2,1.36,4.34,5.16,3.61A75,75,0,0,0,75,.66Z" transform="translate(0 -0.66)"/></g></g></svg>