<svg id="Layer_1" data-name="Layer 1" xmlns="http://www.w3.org/2000/svg" xmlns:xlink="http://www.w3.org/1999/xlink" viewBox="0 0 150 150"><defs><style>.cls-1{fill:none;}.cls-2{clip-path:url(#clip-path);}.cls-3{fill:#6d7189;}</style><clipPath id="clip-path" transform="translate(-1.68 -2.16)"><rect class="cls-1" x="1.68" y="2.16" width="150" height="150"/></clipPath></defs><g class="cls-2"><path class="cls-3" d="M76.68,2.16a75,75,0,1,0,75,75A75,75,0,0,0,76.68,2.16ZM48.53,35.92c5.26,0,8.77,3.51,8.77,8.19S53.79,52.29,48,52.29c-5.26,0-8.77-3.51-8.77-8.18S42.69,35.92,48.53,35.92Zm9.4,72.49H39.18v-50H57.9Zm62.5,0H102.78V81.08c0-7.55-4.71-9.3-6.47-9.3s-7.65,1.16-7.65,9.3v27.33H70.43v-50H88.67v7c2.35-4.07,7-7,15.88-7s15.88,7,15.88,22.67Z" transform="translate(-1.68 -2.16)"/></g></svg>