<svg id="Layer_1" data-name="Layer 1" xmlns="http://www.w3.org/2000/svg" xmlns:xlink="http://www.w3.org/1999/xlink" viewBox="0 0 149.98 149.97"><defs><style>.cls-1{fill:none;}.cls-2{fill:#fff;}.cls-3{clip-path:url(#clip-path);}.cls-4{fill:#b8b3d4;}</style><clipPath id="clip-path" transform="translate(-213.26 -77.74)"><rect class="cls-1" x="213.25" y="77.7" width="150" height="150"/></clipPath></defs><g id="surface1"><path class="cls-2" d="M288.25,81.89q-1.74,0-3.48.09c-1.15,0-2.31.14-3.46.25s-2.31.26-3.45.43-2.29.36-3.43.59-2.26.48-3.39.76-2.24.59-3.35.93-2.21.7-3.3,1.09-2.17.81-3.24,1.25-2.13.91-3.18,1.41-2.08,1-3.1,1.56-2,1.12-3,1.71-2,1.22-2.93,1.86-1.91,1.32-2.84,2-1.85,1.41-2.75,2.14-1.77,1.5-2.63,2.27-1.69,1.58-2.51,2.4-1.62,1.66-2.4,2.52-1.53,1.73-2.27,2.63-1.45,1.81-2.14,2.74-1.35,1.88-2,2.84-1.26,1.94-1.86,2.94-1.17,2-1.71,3-1.07,2.06-1.57,3.11-1,2.1-1.4,3.18-.87,2.14-1.26,3.24-.75,2.19-1.09,3.3-.64,2.22-.92,3.35-.54,2.25-.76,3.39-.43,2.27-.6,3.42-.31,2.3-.42,3.45-.2,2.31-.26,3.47-.08,2.31-.08,3.47,0,2.32.08,3.48.14,2.31.26,3.46.25,2.31.42,3.45.37,2.29.6,3.43.48,2.26.76,3.39.59,2.24.92,3.35.71,2.21,1.09,3.3.81,2.17,1.26,3.24.91,2.13,1.4,3.18,1,2.08,1.57,3.1,1.11,2,1.71,3,1.22,2,1.86,2.93,1.31,1.91,2,2.85,1.4,1.84,2.14,2.73,1.49,1.78,2.27,2.64,1.58,1.69,2.4,2.51,1.66,1.62,2.51,2.4,1.74,1.54,2.63,2.27,1.82,1.45,2.75,2.14,1.87,1.36,2.84,2,1.94,1.26,2.93,1.86,2,1.17,3,1.71,2.06,1.07,3.1,1.56,2.11,1,3.18,1.41,2.15.86,3.24,1.25,2.2.76,3.3,1.09,2.23.65,3.35.93,2.26.54,3.39.76,2.28.43,3.43.6,2.3.31,3.45.42,2.31.2,3.46.26,2.32.09,3.48.09,2.32,0,3.47-.09,2.31-.15,3.47-.26,2.3-.25,3.45-.42,2.29-.37,3.42-.6,2.27-.48,3.39-.76,2.24-.59,3.35-.93,2.21-.69,3.31-1.09,2.17-.8,3.24-1.25,2.13-.91,3.17-1.41,2.09-1,3.11-1.56,2-1.12,3-1.71,2-1.22,2.94-1.86,1.91-1.31,2.84-2,1.85-1.4,2.74-2.14,1.77-1.49,2.63-2.27,1.7-1.58,2.52-2.4,1.62-1.65,2.4-2.51,1.53-1.74,2.27-2.64,1.44-1.8,2.13-2.73,1.36-1.88,2-2.85,1.27-1.94,1.86-2.93,1.17-2,1.72-3,1.07-2.05,1.56-3.1,1-2.11,1.41-3.18.86-2.15,1.25-3.24.76-2.19,1.09-3.3.65-2.23.93-3.35.53-2.26.76-3.39.42-2.28.59-3.43.32-2.29.43-3.45.2-2.3.26-3.46.08-2.32.08-3.48,0-2.31-.08-3.47-.15-2.32-.26-3.47-.26-2.3-.43-3.45-.36-2.29-.59-3.42-.48-2.27-.76-3.39-.59-2.25-.93-3.35-.7-2.21-1.09-3.3-.81-2.17-1.25-3.24-.91-2.14-1.41-3.18-1-2.09-1.56-3.11-1.12-2-1.72-3-1.21-2-1.86-2.94-1.3-1.91-2-2.84-1.4-1.84-2.13-2.74-1.49-1.77-2.27-2.63-1.58-1.7-2.4-2.52-1.66-1.62-2.52-2.4-1.73-1.53-2.63-2.27-1.81-1.44-2.74-2.14-1.88-1.35-2.84-2-1.94-1.26-2.94-1.86-2-1.16-3-1.71-2.06-1.07-3.11-1.56-2.1-1-3.17-1.41-2.16-.86-3.24-1.25-2.2-.75-3.31-1.09-2.22-.65-3.35-.93-2.25-.53-3.39-.76-2.28-.42-3.42-.59-2.3-.32-3.45-.43-2.31-.2-3.47-.25S289.41,81.89,288.25,81.89Z" transform="translate(-213.26 -77.74)"/><g class="cls-3"><path class="cls-4" d="M363.24,152.73a75,75,0,1,1-75-75,75,75,0,0,1,75,75" transform="translate(-213.26 -77.74)"/></g><path class="cls-2" d="M328.37,124.3H248.12c3.22,2.18,39.43,26,40.13,26.33.7-.37,36.91-24.15,40.12-26.33" transform="translate(-213.26 -77.74)"/><path class="cls-2" d="M288.25,154.1c-1-.62-38.36-25.3-40.59-26.64v53.69h81.18V127.46c-2.23,1.34-39.58,26-40.59,26.64" transform="translate(-213.26 -77.74)"/></g></svg>